<?xml version="1.0" standalone="no"?>
<!DOCTYPE svg PUBLIC "-//W3C//DTD SVG 20010904//EN"
 "http://www.w3.org/TR/2001/REC-SVG-20010904/DTD/svg10.dtd">
<svg version="1.0" xmlns="http://www.w3.org/2000/svg"
 width="360.000000pt" height="360.000000pt" viewBox="0 0 360.000000 360.000000"
 preserveAspectRatio="xMidYMid meet">

<g transform="translate(0.000000,360.000000) scale(0.100000,-0.100000)"
fill="#000000" stroke="none">
<path d="M1650 3125 c-166 -41 -307 -149 -378 -290 -38 -77 -55 -188 -49 -314
6 -114 6 -115 -23 -163 -58 -94 -63 -183 -16 -277 23 -45 84 -112 133 -146 12
-8 46 -62 77 -120 92 -174 183 -282 275 -326 61 -30 163 -37 228 -15 108 36
217 155 318 346 44 84 65 112 104 142 144 108 172 276 71 418 -18 25 -19 36
-11 115 26 262 -72 464 -279 574 -122 65 -314 89 -450 56z"/>
<path d="M1325 1521 c-295 -121 -450 -213 -581 -345 -123 -124 -189 -251 -219
-423 -15 -86 -20 -239 -9 -280 l6 -23 1285 0 1285 0 -5 157 c-5 178 -18 236
-76 358 -111 234 -330 397 -765 570 l-118 47 -69 -69 c-95 -96 -151 -123 -255
-123 -107 0 -177 33 -263 125 -33 36 -64 65 -68 64 -4 0 -71 -26 -148 -58z"/>
</g>
</svg>
