<?xml version="1.0" standalone="no"?>
<!DOCTYPE svg PUBLIC "-//W3C//DTD SVG 20010904//EN"
 "http://www.w3.org/TR/2001/REC-SVG-20010904/DTD/svg10.dtd">
<svg version="1.0" xmlns="http://www.w3.org/2000/svg"
 width="1024.000000pt" height="1024.000000pt" viewBox="0 0 1024.000000 1024.000000"
 preserveAspectRatio="xMidYMid meet">

<g transform="translate(0.000000,1024.000000) scale(0.100000,-0.100000)"
fill="#000000" stroke="none">
<path d="M0 5120 l0 -5120 2710 0 c1687 0 2710 4 2710 9 0 6 -5 13 -10 16 -6
4 -8 15 -5 26 4 10 3 24 -2 31 -4 7 -13 28 -19 46 -11 31 -11 32 16 32 63 0
110 87 69 128 -32 30 -44 38 -59 35 -8 -2 -22 10 -32 26 -15 27 -15 30 0 36 9
3 13 3 10 -1 -10 -9 10 -44 25 -44 8 0 8 3 -2 9 -8 5 -9 11 -3 15 5 3 12 0 15
-8 8 -19 47 -9 47 12 0 12 3 13 12 4 14 -14 32 -16 24 -4 -3 5 1 9 8 9 8 0 13
-7 11 -16 -1 -9 0 -20 4 -26 3 -5 6 -40 6 -77 1 -39 6 -73 14 -82 15 -17 81
-22 81 -6 0 22 40 9 46 -15 3 -14 10 -25 14 -25 5 0 13 -15 20 -34 6 -18 28
-47 50 -65 l40 -32 732 1 c403 1 754 4 781 7 30 4 47 10 47 19 0 8 9 14 20 14
10 0 24 9 30 20 6 11 15 20 21 20 5 0 20 12 32 26 22 25 57 26 57 0 0 -7 14
-10 40 -8 27 3 40 9 40 19 0 12 -8 14 -40 9 -41 -6 -57 7 -20 17 11 3 20 9 19
14 -4 22 3 31 27 36 31 6 66 -2 59 -13 -3 -4 2 -10 9 -13 8 -3 17 -1 20 6 3 7
3 0 0 -15 -7 -31 -6 -32 30 -19 33 13 53 -8 35 -38 -11 -17 -10 -23 5 -40 17
-19 17 -21 2 -36 -9 -9 -16 -18 -16 -21 0 -2 565 -4 1255 -4 l1255 0 0 4614
c0 3487 -3 4621 -12 4646 -9 26 -9 35 0 38 22 7 12 54 -19 94 -17 21 -33 37
-35 35 -6 -5 20 -57 29 -57 4 0 7 -13 7 -30 l0 -30 -57 55 c-32 30 -63 55 -68
55 -16 0 -145 129 -145 144 0 8 -7 16 -15 20 -8 3 -14 9 -13 13 1 4 -4 19 -11
31 -7 13 -9 27 -5 30 4 4 9 1 11 -5 3 -7 10 -13 17 -13 7 0 33 -26 57 -57 24
-31 56 -70 72 -86 15 -16 27 -31 27 -34 0 -9 34 -32 48 -33 6 0 12 7 12 15 0
8 -7 15 -15 15 -8 0 -15 7 -15 15 0 17 -1 19 -55 79 -19 22 -35 46 -35 53 0 7
-12 23 -26 36 -14 12 -41 43 -60 68 -19 26 -61 64 -94 85 -33 21 -60 44 -60
51 0 7 -4 13 -10 13 -5 0 -20 10 -31 21 -12 12 -51 38 -88 59 -37 21 -68 46
-70 56 -2 10 -13 32 -26 49 -12 16 -29 50 -37 75 -9 29 -23 49 -39 57 -13 7
-35 20 -48 30 -13 10 -33 21 -45 25 -11 3 -2128 6 -4703 7 l-4683 1 0 -5120z
m5927 4978 c-3 -8 -6 -5 -6 6 -1 11 2 17 5 13 3 -3 4 -12 1 -19z m-102 -213
c3 -27 -12 -34 -21 -10 -7 17 3 51 13 42 3 -4 7 -18 8 -32z m3895 -55 c0 -5
-2 -10 -4 -10 -3 0 -8 5 -11 10 -3 6 -1 10 4 10 6 0 11 -4 11 -10z m-4170 -50
c0 -5 -2 -10 -4 -10 -3 0 -8 5 -11 10 -3 6 -1 10 4 10 6 0 11 -4 11 -10z m-28
-112 c-9 -9 -12 -7 -12 12 0 19 3 21 12 12 9 -9 9 -15 0 -24z m-217 -178 c3
-5 1 -10 -4 -10 -6 0 -11 5 -11 10 0 6 2 10 4 10 3 0 8 -4 11 -10z m-38 -47
c4 -9 2 -18 -5 -21 -6 -2 -8 -10 -5 -19 4 -11 2 -14 -5 -9 -13 8 -13 66 0 66
5 0 12 -8 15 -17z m-52 -2 c3 -5 1 -12 -5 -16 -5 -3 -10 1 -10 9 0 18 6 21 15
7z m-361 -406 c4 -10 13 -14 29 -10 16 4 29 -1 47 -19 l23 -26 -25 0 c-24 0
-115 69 -92 70 7 0 14 -7 18 -15z m-135 -64 c22 -14 9 -30 -17 -20 -13 5 -20
13 -17 19 8 12 16 12 34 1z m151 -21 c11 -7 4 -10 -25 -9 -31 0 -36 2 -20 9
26 11 28 11 45 0z m78 -6 c14 -15 14 -16 -3 -13 -10 2 -20 10 -23 17 -5 17 6
15 26 -4z m-34 -33 c8 -6 19 -25 26 -41 7 -17 16 -30 21 -30 11 0 11 3 -1 34
-9 24 -8 25 33 23 23 0 50 2 60 7 10 5 17 4 17 -1 0 -6 -10 -15 -22 -20 -22
-10 -21 -10 7 -10 17 0 42 -2 57 -6 15 -3 44 -1 65 5 20 5 39 6 40 2 12 -35
21 -36 49 -10 16 14 33 26 39 26 5 0 4 -4 -3 -9 -25 -16 55 -51 121 -52 9 0
17 -4 17 -9 0 -22 57 -37 130 -35 41 1 64 -1 50 -4 -22 -6 -19 -9 25 -20 28
-8 60 -23 72 -34 12 -10 26 -16 32 -12 6 3 11 2 11 -4 0 -6 7 -8 15 -5 8 4 15
1 15 -6 0 -7 -8 -10 -20 -7 -11 3 -20 2 -20 -1 1 -10 68 -42 88 -42 21 0 64
-29 44 -30 -7 0 -22 5 -33 10 -12 7 -19 7 -19 1 0 -13 33 -31 57 -31 10 -1 34
-14 53 -30 19 -17 39 -30 46 -30 18 0 35 -26 29 -43 -4 -9 -15 -13 -28 -10
-17 3 -19 2 -7 -5 21 -14 100 -19 97 -7 -1 6 -12 10 -24 10 -26 -1 -30 22 -10
47 9 12 18 14 37 7 17 -7 21 -12 12 -18 -15 -9 63 -37 90 -33 10 2 18 -2 18
-7 0 -6 -4 -11 -10 -11 -19 0 -10 -18 17 -36 15 -9 34 -17 43 -17 17 0 60 -28
108 -72 19 -16 36 -29 38 -27 6 3 40 -32 46 -50 4 -8 15 -17 25 -20 14 -4 18
1 18 24 0 18 -7 33 -18 40 -18 9 -77 67 -77 74 0 12 29 0 54 -21 16 -13 37
-27 47 -30 11 -4 19 -13 19 -20 0 -8 9 -20 20 -28 10 -7 29 -26 42 -42 l22
-28 -22 5 c-38 10 -24 -8 21 -27 23 -10 45 -17 50 -16 4 0 6 -2 6 -6 -3 -21 3
-31 26 -41 14 -6 25 -20 25 -29 0 -10 42 -59 93 -109 99 -97 147 -154 147
-177 0 -7 23 -38 50 -67 36 -38 50 -62 50 -82 0 -15 5 -28 10 -28 6 0 10 -9
10 -20 0 -13 7 -20 18 -20 13 0 22 -12 31 -40 6 -22 16 -40 21 -40 6 0 10 -7
10 -15 0 -8 5 -15 10 -15 6 0 10 -11 10 -25 0 -26 15 -34 22 -13 3 7 23 -17
46 -52 38 -60 40 -66 24 -78 -11 -8 -13 -15 -6 -20 5 -4 20 -22 33 -39 12 -18
30 -33 39 -33 17 0 44 -26 92 -89 14 -19 37 -48 53 -66 19 -23 24 -35 15 -38
-8 -3 -6 -6 5 -6 9 -1 17 -4 18 -8 0 -5 2 -18 3 -30 3 -24 16 -45 16 -25 0 6
7 9 15 6 8 -4 15 -12 15 -19 0 -8 11 -26 24 -42 13 -15 26 -38 30 -50 4 -13
12 -23 17 -23 6 0 17 -15 25 -32 8 -18 32 -58 54 -88 22 -30 40 -61 40 -67 0
-7 4 -13 9 -13 5 0 13 -10 17 -22 3 -12 13 -28 20 -35 7 -8 11 -20 8 -27 -3
-8 4 -16 16 -19 12 -3 24 -15 27 -26 3 -12 10 -21 15 -21 5 0 7 -4 4 -9 -3 -5
1 -12 9 -15 12 -4 34 -41 39 -66 1 -3 9 -17 19 -31 12 -18 16 -36 11 -53 -5
-20 -2 -26 10 -26 19 0 56 -34 56 -52 0 -7 7 -22 15 -32 14 -19 11 -41 -5 -31
-4 3 -10 -2 -14 -10 -7 -19 14 -31 25 -14 6 9 9 10 9 2 0 -6 -5 -15 -11 -18
-6 -4 -8 -14 -5 -22 4 -9 1 -22 -5 -29 -6 -7 -8 -18 -5 -23 4 -5 2 -12 -3 -16
-6 -3 -7 -15 -2 -28 5 -12 7 -39 5 -60 -4 -28 -1 -37 11 -37 8 0 15 -7 15 -16
0 -14 -2 -15 -17 -3 -15 13 -16 11 -11 -13 6 -30 -6 -38 -16 -11 -5 13 -9 14
-19 3 -9 -10 -9 -13 1 -17 6 -3 12 -9 12 -15 0 -15 -52 0 -67 20 -16 22 -17
37 0 24 10 -9 19 -7 37 5 22 16 22 17 4 23 -10 4 -22 3 -25 -2 -3 -5 -17 -4
-33 2 -48 18 -56 14 -40 -20 9 -16 25 -37 37 -45 19 -13 19 -15 4 -15 -14 0
-17 -5 -11 -22 16 -51 36 -273 33 -373 -1 -44 -1 -100 1 -125 2 -44 3 -44 15
25 7 39 10 75 7 80 -4 6 -7 80 -9 166 -1 85 -7 168 -13 184 -12 31 -5 65 13
65 21 0 60 -69 62 -111 2 -27 11 -49 28 -67 15 -16 30 -48 37 -77 13 -62 44
-142 83 -217 17 -34 27 -66 24 -78 -3 -11 -1 -18 4 -14 5 3 9 -8 9 -25 0 -16
5 -31 11 -33 5 -2 11 -10 13 -18 8 -43 23 -83 58 -158 21 -46 38 -85 38 -88 0
-2 12 -23 26 -45 29 -47 28 -63 -1 -18 -11 16 -24 29 -28 29 -9 0 1 -87 14
-111 5 -9 4 -20 -2 -26 -6 -6 -13 -36 -16 -67 -3 -31 -10 -56 -15 -56 -19 0
-37 -28 -32 -51 5 -23 5 -23 -8 -4 -20 31 -51 66 -68 75 -13 7 -15 0 -10 -50
6 -64 16 -83 30 -60 7 12 12 12 22 2 9 -9 9 -12 -2 -12 -11 0 -11 -3 -2 -12
13 -13 17 -48 6 -48 -4 0 -13 8 -20 18 -12 14 -13 0 -7 -96 5 -101 4 -112 -10
-106 -14 5 -16 -10 -13 -135 1 -79 -1 -141 -6 -141 -15 0 -38 -27 -38 -45 0
-13 -6 -16 -20 -12 -17 4 -20 2 -15 -14 5 -14 2 -19 -14 -19 -24 0 -38 -19
-21 -30 9 -6 9 -9 0 -15 -9 -6 -9 -9 1 -16 10 -6 5 -11 -16 -20 -28 -12 -28
-13 -8 -16 20 -4 21 -5 6 -23 -15 -17 -18 -17 -28 -3 -11 14 -13 13 -17 -11
-3 -14 -1 -29 3 -32 5 -3 9 0 9 7 0 7 2 10 5 8 10 -11 -8 -47 -21 -42 -8 3
-14 -1 -14 -11 0 -9 -8 -16 -20 -16 -22 0 -25 -7 -11 -29 10 -16 -10 -56 -43
-83 -13 -11 -16 -18 -8 -18 16 0 7 -37 -16 -62 -14 -17 -13 -18 6 -18 12 0 22
-4 22 -10 0 -5 -9 -10 -20 -10 -21 0 -26 -16 -10 -40 5 -8 5 -17 0 -20 -4 -3
-10 -14 -12 -25 -2 -15 3 -20 19 -20 35 -1 37 -12 4 -18 -42 -9 -32 -41 10
-35 20 3 29 0 29 -9 0 -7 -7 -13 -16 -13 -11 0 -15 -6 -11 -20 3 -10 0 -21 -7
-23 -6 -2 -1 -9 12 -16 20 -11 22 -10 22 14 0 15 4 24 10 20 6 -4 8 -10 5 -15
-6 -9 18 -20 46 -20 20 0 26 -15 9 -25 -5 -3 -7 -12 -4 -20 4 -8 9 -13 13 -11
3 2 7 -7 7 -20 1 -13 -2 -21 -7 -18 -5 3 -9 -7 -9 -22 0 -22 3 -25 12 -16 15
15 48 16 48 2 0 -5 -4 -10 -8 -10 -5 0 -14 -12 -21 -27 -12 -27 -13 -27 -27
-9 -7 11 -16 17 -19 14 -3 -3 1 -13 10 -22 10 -9 15 -23 12 -30 -4 -10 0 -12
14 -9 10 3 19 10 19 15 0 6 7 5 15 -2 12 -10 13 -16 4 -26 -9 -11 -7 -15 7
-21 10 -4 19 -2 22 5 7 21 22 2 17 -21 -8 -31 29 -54 51 -32 22 22 62 29 79
15 13 -10 15 -8 15 14 0 14 5 26 10 26 6 0 10 -11 10 -25 0 -18 5 -25 20 -25
11 0 18 -5 16 -12 -3 -7 -7 -25 -10 -41 -4 -16 -13 -27 -24 -27 -15 -1 -15 -2
2 -15 16 -12 17 -18 8 -27 -7 -7 -12 -30 -12 -51 0 -26 -6 -44 -17 -53 -15
-11 -15 -13 -3 -14 11 0 10 -4 -5 -16 -14 -11 -16 -18 -7 -21 21 -8 13 -50
-17 -82 -16 -17 -34 -31 -40 -31 -6 0 -11 -12 -11 -26 0 -15 -4 -23 -11 -19
-6 4 -8 13 -5 21 3 9 -1 14 -13 14 -12 0 -18 -7 -17 -18 1 -14 -7 -17 -40 -17
-42 0 -74 -17 -74 -40 0 -21 -41 -65 -61 -65 -39 0 -10 -31 31 -34 23 -2 18
-30 -8 -41 -12 -5 -20 -15 -18 -22 3 -7 -1 -10 -10 -6 -10 4 -13 -1 -12 -18 2
-14 -4 -27 -17 -33 -43 -23 -46 -27 -35 -41 9 -10 4 -19 -19 -36 -17 -12 -28
-26 -25 -31 3 -4 10 -6 15 -3 5 4 9 -1 9 -9 0 -9 -4 -16 -10 -16 -5 0 -10 -7
-10 -15 0 -8 -9 -24 -20 -35 -11 -11 -20 -26 -20 -34 0 -7 -7 -19 -15 -26 -12
-10 -15 -9 -15 6 0 16 -1 16 -18 -2 -17 -17 -17 -21 -3 -34 13 -13 13 -15 -5
-18 -11 -2 -29 -17 -39 -35 -10 -18 -40 -53 -67 -79 -27 -26 -48 -56 -48 -67
0 -22 -33 -61 -51 -61 -5 0 -7 -5 -4 -10 3 -6 15 -10 26 -10 29 0 19 -20 -19
-41 -18 -9 -44 -29 -57 -44 -14 -14 -30 -23 -36 -20 -13 8 -79 -36 -79 -52 0
-7 5 -13 10 -13 6 0 10 -4 10 -10 0 -5 -6 -10 -12 -10 -7 0 -21 -14 -30 -30
-10 -18 -25 -30 -38 -30 -14 0 -20 -7 -20 -22 0 -23 -67 -105 -82 -101 -4 2
-12 -6 -18 -17 -6 -11 -19 -20 -30 -20 -10 0 -21 -9 -25 -19 -3 -11 -26 -28
-50 -38 -26 -10 -43 -23 -41 -30 3 -7 -6 -13 -22 -15 -18 -2 -28 -10 -32 -28
-4 -19 -14 -26 -38 -30 -17 -3 -40 -12 -49 -20 -10 -9 -40 -16 -68 -17 -75 -3
-105 -7 -105 -15 0 -5 -7 -8 -15 -8 -16 0 -77 -39 -83 -52 -2 -5 -13 -8 -24
-8 -10 0 -27 -7 -35 -16 -11 -11 -27 -14 -50 -11 -24 4 -33 2 -33 -9 0 -9 -10
-14 -29 -14 -16 0 -36 -7 -44 -15 -8 -8 -17 -11 -21 -8 -3 3 -11 1 -18 -5 -7
-6 -17 -11 -23 -11 -5 0 -12 -13 -14 -28 -2 -21 -5 -24 -10 -11 -5 15 -15 9
-56 -32 -28 -27 -57 -49 -67 -50 -9 0 -18 -4 -20 -8 -4 -10 -112 -82 -123 -82
-16 0 -81 -34 -105 -55 -14 -13 -51 -32 -82 -44 -62 -22 -94 -39 -116 -59 -8
-7 -20 -11 -28 -8 -7 3 -36 -4 -66 -15 -29 -10 -58 -17 -65 -15 -7 3 -10 -1
-7 -9 4 -10 0 -12 -15 -8 -12 3 -21 1 -21 -5 0 -5 -7 -13 -16 -16 -14 -5 -15
-4 -4 9 7 9 10 18 6 22 -3 3 -6 2 -6 -4 0 -6 -11 -14 -25 -17 -16 -4 -23 -11
-19 -18 5 -7 3 -8 -6 -3 -7 4 -16 2 -22 -6 -8 -11 -9 -10 -4 3 6 20 -4 24 -20
8 -6 -6 -33 -12 -61 -13 -30 -1 -46 -5 -40 -10 7 -5 0 -7 -16 -4 -15 2 -44 -2
-65 -9 -20 -7 -31 -13 -23 -14 8 0 11 -3 8 -6 -4 -4 -13 -1 -22 6 -13 10 -19
10 -33 -2 -9 -8 -24 -18 -32 -22 -8 -4 -7 -1 4 8 17 14 16 15 -25 10 -29 -3
-51 -12 -63 -27 l-19 -22 7 25 c6 22 6 23 -5 6 -9 -15 -13 -16 -20 -5 -7 11
-11 11 -17 2 -6 -9 -12 -8 -24 6 -11 13 -24 17 -46 13 -18 -2 -29 -8 -26 -13
3 -5 -2 -6 -10 -3 -9 3 -16 11 -16 16 0 6 -9 8 -20 5 -46 -12 -281 97 -369
171 -157 134 -205 209 -409 642 -31 66 -69 135 -156 289 -27 47 -61 112 -76
145 -15 34 -44 96 -64 138 -20 42 -36 79 -36 81 0 3 -31 70 -70 151 -38 80
-70 147 -70 150 0 2 -36 78 -80 170 -44 91 -80 171 -80 176 0 6 -9 29 -20 50
-21 40 -119 312 -146 405 -9 28 -21 64 -29 80 -35 78 -166 355 -187 395 -21
39 -81 183 -109 260 -75 210 -59 569 48 1090 40 198 58 305 73 435 16 134 10
127 88 119 37 -4 77 -14 89 -23 25 -18 30 -50 11 -69 -14 -14 -4 -15 38 -3 36
10 45 6 61 -31 8 -19 17 -26 28 -22 10 4 15 0 15 -10 0 -9 9 -21 20 -28 11 -7
20 -19 20 -26 0 -7 5 -10 11 -6 8 4 8 9 0 17 -17 17 -13 47 7 47 12 0 13 -3 4
-8 -9 -6 -7 -14 9 -31 14 -14 24 -19 28 -12 7 12 101 10 101 -1 0 -5 7 -8 15
-8 9 0 12 -6 9 -15 -8 -20 2 -19 35 5 28 19 28 19 64 0 23 -13 38 -16 43 -9 3
6 12 8 20 5 10 -4 14 2 14 19 0 13 4 27 10 30 6 3 7 -1 4 -9 -4 -11 3 -19 21
-26 32 -12 37 -9 41 25 2 16 -2 25 -12 25 -8 0 -13 -5 -11 -11 1 -6 -4 -14
-10 -16 -7 -3 -13 2 -13 10 0 22 -40 35 -130 43 -30 3 -59 9 -65 14 -5 4 -35
11 -65 14 -61 7 -83 20 -51 31 13 4 18 11 14 18 -12 20 -14 187 -1 187 6 0 19
9 29 21 9 11 19 20 21 19 7 -3 43 14 49 23 15 22 26 -6 28 -65 2 -110 68 -212
153 -237 89 -27 91 -28 85 -66 -6 -39 7 -48 17 -12 10 37 7 57 -9 57 -8 0 -15
6 -15 13 0 8 13 12 35 11 19 -1 38 2 41 7 3 5 15 9 27 9 12 0 30 7 40 15 11 7
26 11 35 8 14 -4 15 -3 2 5 -12 9 -10 14 12 31 31 25 58 79 58 118 0 31 15 53
36 53 7 0 34 -20 61 -45 26 -25 55 -45 65 -45 23 0 32 -18 18 -35 -8 -10 -9
-15 -2 -15 6 0 14 5 18 11 4 8 13 4 25 -12 23 -30 24 -39 1 -39 -10 0 -27 -7
-38 -15 -22 -17 -60 -20 -69 -5 -3 6 -11 10 -16 10 -18 0 2 -21 29 -31 18 -7
40 -6 73 2 42 11 48 16 52 43 4 29 0 41 -39 108 -20 34 -76 86 -105 98 -15 7
-30 18 -33 26 -9 23 16 16 47 -13 27 -26 29 -27 41 -10 18 24 23 22 68 -24 36
-37 41 -39 52 -23 17 22 9 57 -11 50 -9 -4 -18 4 -24 22 -5 15 -23 36 -39 45
-17 11 -27 23 -24 31 3 9 -3 17 -15 21 -12 3 -19 11 -16 16 4 5 -1 9 -9 9 -8
0 -22 7 -31 16 -8 9 -24 14 -35 11 -11 -3 -29 4 -43 17 -12 11 -36 27 -52 34
-23 11 -26 15 -14 23 12 7 12 9 -2 9 -9 0 -30 7 -47 16 -17 8 -44 17 -59 20
-15 3 -30 8 -33 12 -3 4 -18 8 -35 10 -16 2 -57 9 -90 16 -33 8 -99 13 -147
12 -47 0 -84 2 -81 7 2 4 -27 7 -66 7 -38 0 -73 -4 -76 -10 -3 -5 -15 -10 -26
-10 -10 0 -19 -4 -19 -10 0 -5 -18 -14 -40 -20 -27 -7 -40 -16 -40 -28 0 -11
-8 -4 -23 18 l-22 35 -6 -35 c-6 -35 -6 -35 -16 -10 l-10 25 -8 -24 c-6 -19
-9 -21 -17 -10 -7 10 -8 1 -5 -29 6 -51 -8 -46 -24 9 -14 45 -33 34 -23 -14 3
-15 2 -27 -3 -26 -22 4 -24 -3 -8 -27 9 -15 12 -23 6 -20 -7 5 -11 -1 -11 -15
0 -18 2 -19 15 -9 8 7 15 8 15 2 0 -5 -6 -15 -14 -21 -27 -22 -4 -64 45 -84
l44 -17 -45 6 c-61 8 -107 45 -116 92 -4 20 -8 118 -8 217 0 155 2 190 21 255
12 41 24 94 28 118 7 44 31 66 88 76 14 2 34 9 44 15 44 23 168 -19 300 -102
21 -13 59 -26 84 -29 26 -3 66 -15 90 -26 24 -11 59 -26 77 -34 17 -7 32 -17
32 -21 0 -5 9 -5 20 -2 12 4 27 1 35 -5 8 -7 22 -9 31 -6 9 4 23 1 31 -6 11
-9 16 -9 23 1 5 9 18 11 39 6 26 -5 30 -4 25 9 -7 19 12 22 19 4 8 -19 27 11
20 31 -2 9 3 4 12 -11 8 -16 20 -28 25 -28 14 0 12 12 -5 34 -8 10 -12 23 -9
28 3 5 12 1 20 -9 7 -10 14 -13 14 -6 0 6 -19 25 -42 42 -41 30 -32 45 13 21
10 -6 19 -7 19 -2 0 11 -45 32 -68 32 -9 0 -26 8 -37 16 -19 16 -19 16 8 12
31 -6 38 15 10 27 -17 7 -16 8 2 15 17 8 18 9 3 11 -38 4 -88 26 -88 38 0 5
-15 12 -32 16 -64 13 -72 16 -57 26 9 6 2 7 -18 3 -23 -5 -37 -2 -48 10 -9 9
-25 16 -36 16 -11 0 -30 7 -44 16 -22 14 -25 14 -44 -5 -12 -12 -31 -21 -43
-21 l-22 0 23 17 24 16 -43 13 c-44 13 -100 9 -100 -7 0 -5 -11 -9 -25 -9 -14
0 -25 5 -25 10 0 6 11 10 25 10 16 0 25 6 25 15 0 19 -28 19 -75 -1 -20 -8
-42 -13 -48 -11 -7 2 -19 -2 -27 -9 -9 -7 -36 -15 -60 -18 -40 -5 -41 -5 -11
3 18 5 46 19 62 30 16 12 34 19 40 16 5 -4 17 -4 26 0 14 5 12 9 -11 20 -15 8
-33 12 -39 8 -6 -4 -7 -1 -2 7 6 10 1 11 -21 6 -16 -4 -47 -9 -69 -12 -39 -5
-39 -5 -21 15 23 25 14 27 -20 5 -14 -10 -23 -23 -20 -31 3 -8 2 -12 -2 -9 -5
3 -30 -15 -56 -40 -27 -25 -51 -43 -53 -40 -3 2 0 19 6 38 6 18 18 125 26 238
8 113 21 241 29 285 22 134 138 507 195 630 49 105 71 155 71 161 0 6 33 77
94 204 37 75 86 151 86 134 1 -5 9 7 20 27 10 20 55 73 99 118 45 46 81 89 81
97 0 8 8 14 17 14 20 0 53 28 53 47 0 7 9 13 19 13 10 0 21 7 25 15 3 8 17 20
31 25 15 6 23 14 20 20 -3 6 4 14 17 19 13 5 30 16 37 24 7 9 25 19 41 22 19
4 30 14 32 27 2 12 12 26 23 32 11 6 33 19 48 30 18 12 45 18 75 18 38 -1 43
1 29 9 -18 10 -18 12 3 26 12 8 30 13 41 10 10 -3 22 1 27 8 4 7 34 15 70 18
82 6 96 17 40 31 -17 4 -28 2 -28 -4 0 -5 -4 -10 -10 -10 -5 0 -10 7 -10 15 0
12 14 14 85 10 55 -3 85 -1 85 6 0 5 -6 9 -12 8 -29 -3 -55 2 -73 14 -24 18
-11 41 15 27 12 -6 21 -6 25 -1 3 5 22 7 41 4 34 -6 36 -5 25 15 -12 22 -10
24 56 37 18 4 35 10 37 14 7 11 134 -4 150 -18z m256 4 c0 -15 -6 -25 -14 -25
-8 0 -21 -3 -30 -6 -23 -9 -20 12 6 36 29 26 38 25 38 -5z m80 -16 c-7 -11
-14 -18 -17 -15 -3 3 0 12 7 21 18 21 23 19 10 -6z m217 -16 c9 10 39 -35 40
-60 1 -14 -4 -23 -13 -23 -8 0 -14 5 -14 12 0 6 -11 26 -25 44 -28 37 -33 53
-10 34 9 -7 18 -10 22 -7z m928 -473 c-3 -5 -12 -10 -18 -10 -7 0 -6 4 3 10
19 12 23 12 15 0z m913 -1132 c16 -16 15 -29 -2 -22 -16 6 -30 34 -18 34 5 0
13 -5 20 -12z m2495 -218 c5 -31 5 -32 -5 -10 -5 14 -14 33 -19 42 -13 26 -11
34 5 18 7 -8 16 -31 19 -50z m54 -122 c-3 -8 -6 -5 -6 6 -1 11 2 17 5 13 3 -3
4 -12 1 -19z m10 -50 c-3 -7 -5 -2 -5 12 0 14 2 19 5 13 2 -7 2 -19 0 -25z
m-2117 -178 c0 -5 -2 -10 -4 -10 -3 0 -8 5 -11 10 -3 6 -1 10 4 10 6 0 11 -4
11 -10z m18 -45 c-3 -3 -9 2 -12 12 -6 14 -5 15 5 6 7 -7 10 -15 7 -18z
m-4418 -140 c0 -2 -9 -9 -20 -15 -16 -9 -18 -8 -14 5 5 13 34 22 34 10z m37
-1 c-3 -3 -12 -4 -19 -1 -8 3 -5 6 6 6 11 1 17 -2 13 -5z m103 -80 c0 -2 -19
-4 -42 -3 -31 0 -37 3 -24 8 18 7 66 3 66 -5z m560 -124 c11 -8 7 -9 -15 -4
-37 8 -45 14 -19 14 10 0 26 -5 34 -10z m-5 -40 c3 -5 2 -10 -4 -10 -5 0 -13
5 -16 10 -3 6 -2 10 4 10 5 0 13 -4 16 -10z m42 -142 c-3 -8 -6 -5 -6 6 -1 11
2 17 5 13 3 -3 4 -12 1 -19z m3963 -116 c0 -5 -7 -9 -15 -9 -8 0 -15 4 -15 9
0 4 7 8 15 8 8 0 15 -4 15 -8z m-20 -58 c0 -19 -4 -33 -8 -30 -8 5 -4 66 4 66
2 0 4 -16 4 -36z m30 -30 c0 -8 -4 -12 -10 -9 -5 3 -10 13 -10 21 0 8 5 12 10
9 6 -3 10 -13 10 -21z m0 -66 c0 -16 -3 -19 -11 -11 -6 6 -8 16 -5 22 11 17
16 13 16 -11z m52 -10 c-9 -9 -12 -7 -12 12 0 19 3 21 12 12 9 -9 9 -15 0 -24z
m-4180 -32 c139 -39 285 -127 271 -163 -5 -12 -2 -15 10 -10 19 7 21 -6 7 -38
-7 -17 -9 -17 -9 -2 -1 19 -21 24 -22 5 0 -7 -4 -4 -9 7 -7 17 -9 18 -9 2 -1
-13 -5 -15 -18 -8 -10 5 -29 13 -43 19 -14 6 -41 18 -61 27 -20 9 -47 17 -60
19 -13 1 -34 8 -47 15 -12 6 -27 9 -33 5 -6 -4 -15 -1 -19 7 -7 10 -11 10 -24
0 -12 -10 -16 -11 -16 -1 0 8 -8 10 -25 6 -16 -4 -25 -2 -25 5 0 6 -7 9 -15 6
-8 -4 -17 -2 -21 4 -3 6 -13 8 -21 5 -8 -3 -24 -1 -35 5 -19 10 -20 9 -14 -14
6 -25 5 -25 -26 -15 -18 5 -41 12 -50 15 -13 4 -18 0 -18 -14 0 -16 -6 -20
-32 -19 -17 1 -33 7 -36 14 -2 6 -8 12 -14 12 -5 0 -7 -8 -4 -18 5 -14 -1 -22
-21 -30 -25 -11 -26 -11 -10 2 11 8 14 17 8 20 -5 4 -12 2 -16 -4 -4 -6 -11
-7 -17 -4 -7 4 -8 2 -4 -4 4 -7 1 -12 -8 -12 -8 0 -18 5 -21 10 -4 6 -10 8
-15 5 -5 -3 -11 -1 -15 5 -3 5 -1 10 5 10 7 0 10 6 7 14 -6 14 29 50 73 75
116 66 294 80 452 37z m4091 9 c-3 -9 -8 -14 -10 -11 -3 3 -2 9 2 15 9 16 15
13 8 -4z m101 -17 c11 -42 5 -53 -9 -19 -18 39 -18 41 -6 41 5 0 11 -10 15
-22z m-37 -39 c8 -19 8 -27 1 -23 -6 4 -14 1 -18 -6 -11 -18 -40 10 -40 38 0
33 44 25 57 -9z m-37 -85 c0 -8 -5 -12 -10 -9 -6 4 -8 11 -5 16 9 14 15 11 15
-7z m28 -31 c-2 -12 3 -17 15 -15 11 2 17 -4 17 -15 0 -10 3 -28 6 -40 4 -14
2 -23 -5 -23 -6 0 -11 8 -11 18 0 9 -12 28 -25 41 -20 18 -23 27 -14 37 15 19
20 18 17 -3z m-4830 -11 c6 -18 -15 -14 -22 4 -4 10 -1 14 6 12 6 -2 14 -10
16 -16z m132 -17 c10 -12 9 -15 -8 -15 -11 0 -28 3 -38 7 -16 6 -16 7 2 14 28
11 30 11 44 -6z m870 -35 c0 -5 -4 -10 -10 -10 -5 0 -10 5 -10 10 0 6 5 10 10
10 6 0 10 -4 10 -10z m-1064 -34 c8 -8 14 -19 14 -24 0 -6 7 -13 16 -16 8 -3
12 -11 9 -17 -4 -6 -13 -8 -20 -5 -7 2 -16 2 -19 -1 -8 -9 21 -33 40 -33 10 0
14 -3 11 -7 -4 -3 -1 -13 6 -21 10 -13 9 -15 -7 -9 -13 5 -25 1 -37 -12 -17
-19 -59 -19 -59 -1 0 5 -3 15 -6 24 -4 11 -1 16 10 16 20 0 20 8 2 29 -18 21
-10 91 11 91 8 0 21 -6 29 -14z m672 -19 c2 -10 -3 -17 -12 -17 -10 0 -16 9
-16 21 0 24 23 21 28 -4z m85 8 c7 -16 -8 -29 -23 -20 -10 6 -2 35 10 35 4 0
10 -7 13 -15z m127 -3 c0 -12 -23 -32 -37 -32 -11 0 -11 4 -1 20 13 20 38 28
38 12z m4060 -8 c0 -8 -4 -12 -10 -9 -5 3 -10 10 -10 16 0 5 5 9 10 9 6 0 10
-7 10 -16z m-4349 -367 c-8 -8 -11 -7 -11 4 0 20 13 34 18 19 3 -7 -1 -17 -7
-23z m4539 -447 c0 -5 -5 -10 -11 -10 -5 0 -7 5 -4 10 3 6 8 10 11 10 2 0 4
-4 4 -10z m-220 -806 c0 -2 -7 -4 -15 -4 -8 0 -15 4 -15 10 0 5 7 7 15 4 8 -4
15 -8 15 -10z m-190 -504 c0 -5 -7 -10 -15 -10 -8 0 -15 5 -15 10 0 6 7 10 15
10 8 0 15 -4 15 -10z m374 -377 c-5 -5 -12 -12 -15 -16 -3 -5 -9 -2 -12 7 -5
12 0 16 15 16 12 0 17 -3 12 -7z m-44 -13 c0 -5 -2 -10 -4 -10 -3 0 -8 5 -11
10 -3 6 -1 10 4 10 6 0 11 -4 11 -10z m52 -242 c-7 -7 -12 -8 -12 -2 0 14 12
26 19 19 2 -3 -1 -11 -7 -17z m-232 -302 c0 -2 -7 -7 -16 -10 -8 -3 -12 -2 -9
4 6 10 25 14 25 6z m-2700 -2131 c4 3 10 -2 14 -10 8 -22 -21 -19 -33 4 -6 10
-7 22 -3 26 4 4 8 0 10 -9 2 -9 7 -14 12 -11z m250 5 c-9 -6 -9 -9 -1 -13 8
-4 8 -5 0 -3 -7 1 -13 9 -15 18 -1 11 3 15 13 11 11 -4 12 -8 3 -13z m-3719
-57 c13 -16 12 -17 -3 -4 -17 13 -22 21 -14 21 2 0 10 -8 17 -17z m3528 -50
l25 -16 -23 -18 c-32 -26 -53 -24 -82 8 -17 20 -19 23 -4 13 19 -15 19 -14 3
10 -9 14 -22 24 -28 22 -6 -1 -9 2 -6 7 8 12 83 -5 115 -26z m205 -27 c12 -3
23 -12 23 -21 0 -18 1 -18 -32 -5 -14 5 -23 14 -20 20 3 5 2 10 -3 10 -5 0 -6
15 -3 33 l6 32 3 -32 c2 -23 9 -33 26 -37z m78 -21 c-3 -5 -7 -4 -10 3 -3 10
-7 10 -18 1 -17 -14 -19 -3 -2 15 14 14 40 -2 30 -19z m2048 -5 c0 -38 -2 -40
-30 -40 -32 0 -34 3 -20 35 5 11 9 14 9 8 2 -24 21 -13 21 12 0 14 5 25 10 25
6 0 10 -18 10 -40z m-2012 -15 c-3 -3 -9 2 -12 12 -6 14 -5 15 5 6 7 -7 10
-15 7 -18z m86 -24 c-2 -2 -12 4 -23 13 -12 11 -21 14 -26 7 -3 -6 -12 -11
-18 -11 -7 0 -1 9 12 19 24 18 25 18 42 -3 9 -11 15 -23 13 -25z"/>
<path d="M4758 8903 c7 -3 16 -2 19 1 4 3 -2 6 -13 5 -11 0 -14 -3 -6 -6z"/>
<path d="M4995 8870 c-3 -5 -1 -10 4 -10 6 0 11 5 11 10 0 6 -2 10 -4 10 -3 0
-8 -4 -11 -10z"/>
<path d="M5930 8501 c0 -5 5 -13 10 -16 6 -3 10 -2 10 4 0 5 -4 13 -10 16 -5
3 -10 2 -10 -4z"/>
<path d="M6070 8439 c0 -9 70 -17 76 -8 2 4 -14 9 -36 11 -22 2 -40 1 -40 -3z"/>
<path d="M6508 8253 c7 -3 16 -2 19 1 4 3 -2 6 -13 5 -11 0 -14 -3 -6 -6z"/>
<path d="M6476 8215 c4 -8 11 -15 16 -15 6 0 5 6 -2 15 -7 8 -14 15 -16 15 -2
0 -1 -7 2 -15z"/>
<path d="M6525 8190 c3 -5 16 -15 28 -21 22 -12 22 -12 3 10 -19 21 -43 30
-31 11z"/>
<path d="M6595 8140 c3 -5 8 -10 11 -10 2 0 4 5 4 10 0 6 -5 10 -11 10 -5 0
-7 -4 -4 -10z"/>
<path d="M7185 7410 c3 -5 8 -10 11 -10 2 0 4 5 4 10 0 6 -5 10 -11 10 -5 0
-7 -4 -4 -10z"/>
<path d="M6777 6519 c7 -7 15 -10 18 -7 3 3 -2 9 -12 12 -14 6 -15 5 -6 -5z"/>
<path d="M6920 6496 c0 -3 9 -10 20 -16 11 -6 20 -8 20 -6 0 3 -9 10 -20 16
-11 6 -20 8 -20 6z"/>
<path d="M6376 6475 c-8 -8 -25 -15 -38 -16 -22 0 -22 -1 -3 -9 19 -8 19 -9
-2 -9 -13 -1 -23 4 -23 9 0 6 -13 10 -30 10 -17 0 -30 5 -30 13 0 7 -3 8 -8 2
-8 -11 -122 -15 -122 -4 0 4 -11 2 -24 -4 -13 -7 -22 -15 -20 -19 3 -4 -21 -7
-53 -6 -32 1 -70 -2 -86 -6 -23 -7 -26 -6 -21 9 6 15 4 15 -32 0 -87 -38 -100
-45 -133 -69 -19 -14 -39 -22 -44 -19 -6 4 -1 11 11 16 12 6 22 14 22 19 0 5
-3 8 -7 6 -46 -22 -63 -33 -63 -40 0 -13 -80 -91 -87 -84 -11 10 12 81 25 78
7 -1 12 2 12 8 0 6 -3 10 -7 10 -36 -2 -113 -141 -92 -166 6 -7 12 -40 13 -73
3 -88 21 -100 30 -22 6 55 11 59 24 22 8 -23 15 -29 28 -24 12 4 15 14 11 39
-4 22 -1 37 9 45 12 9 14 8 13 -7 -1 -11 -1 -28 0 -39 1 -16 3 -17 10 -6 17
27 41 22 41 -9 0 -33 17 -49 26 -26 3 9 10 13 16 10 5 -3 12 3 15 15 3 11 9
19 13 16 5 -3 6 -14 3 -25 -5 -20 12 -29 19 -9 2 6 23 12 47 13 23 1 47 9 53
17 6 9 11 10 14 3 5 -11 84 -8 93 4 4 4 22 7 43 8 20 0 49 9 65 19 15 10 37
20 47 20 11 1 30 14 42 28 25 30 47 36 37 12 -3 -9 -2 -15 3 -14 21 4 26 -2
14 -16 -26 -32 24 -2 62 36 32 33 41 37 66 30 19 -6 34 -4 47 5 10 8 24 14 31
14 7 0 25 5 41 11 33 14 40 15 117 17 48 2 56 4 47 15 -6 8 -9 16 -6 19 8 7
55 -3 55 -12 0 -4 15 -10 33 -13 115 -18 174 -30 185 -39 17 -15 15 -2 -4 21
-10 11 -22 17 -29 15 -7 -3 -15 1 -18 9 -9 23 39 12 73 -17 17 -14 49 -30 72
-37 45 -12 88 -36 101 -56 4 -7 16 -13 25 -13 9 0 55 -18 102 -40 88 -41 110
-47 110 -30 0 6 -7 10 -15 10 -8 0 -45 16 -82 35 -37 19 -75 35 -85 35 -9 0
-19 4 -22 8 -10 16 81 -4 118 -26 21 -12 45 -22 54 -22 21 -1 52 -23 52 -39 0
-12 41 -31 76 -35 11 -2 25 -5 30 -9 5 -3 36 -8 68 -12 32 -3 71 -12 87 -20
15 -8 44 -15 63 -15 33 0 35 -2 47 -50 10 -38 17 -50 32 -50 16 0 17 3 7 15
-7 8 -10 22 -6 30 3 9 2 14 -3 11 -10 -7 -21 17 -21 45 0 12 -9 21 -27 24 -79
17 -113 29 -113 40 0 13 -40 41 -115 79 -67 36 -75 41 -75 48 0 5 -7 8 -15 8
-9 0 -18 7 -21 15 -4 8 -13 15 -21 15 -9 0 -31 10 -50 21 -27 17 -37 19 -43 9
-4 -7 -13 -9 -19 -6 -6 4 -9 12 -6 17 3 5 0 6 -8 3 -8 -3 -18 -1 -22 5 -3 6
-17 11 -30 11 -13 0 -38 12 -55 26 -32 27 -53 26 -30 -1 16 -20 6 -19 -25 1
-14 9 -22 21 -18 27 4 6 1 7 -6 2 -8 -4 -26 5 -47 26 -19 18 -34 28 -34 21 0
-7 5 -12 10 -12 6 0 10 -4 10 -8 0 -11 -88 1 -115 14 -11 6 -43 11 -72 12 -28
1 -80 9 -115 17 -73 17 -144 19 -153 5 -9 -15 -71 -12 -112 5 -19 8 -37 15
-39 15 -1 0 -9 -7 -18 -15z m50 -20 c18 -15 18 -15 -5 -13 -14 2 -26 9 -29 16
-5 17 10 15 34 -3z m262 -22 c19 -8 31 -17 29 -20 -7 -6 -107 30 -107 38 0 9
37 1 78 -18z m-193 -13 c8 -13 -5 -13 -25 0 -13 8 -13 10 2 10 9 0 20 -4 23
-10z m-696 -58 c-22 -17 -48 -30 -67 -33 -4 0 -13 -5 -19 -11 -10 -8 -13 -6
-13 6 0 9 8 16 18 17 9 0 31 9 47 19 39 24 65 25 34 2z m51 8 c0 -5 -4 -10
-10 -10 -5 0 -10 5 -10 10 0 6 5 10 10 10 6 0 10 -4 10 -10z m1360 -60 c16 0
30 -4 30 -10 0 -5 6 -10 13 -10 8 0 24 -11 37 -25 18 -19 20 -25 8 -25 -9 0
-22 9 -29 19 -8 11 -41 28 -73 39 -33 10 -62 25 -64 32 -4 11 1 10 21 -3 15
-9 40 -17 57 -17z m-54 -33 c4 -4 0 -7 -9 -7 -9 0 -20 0 -24 -1 -4 0 -9 4 -11
9 -3 10 34 9 44 -1z m-1536 -66 c0 -5 -7 -12 -16 -15 -14 -5 -15 -4 -4 9 14
17 20 19 20 6z m70 -31 c0 -5 -5 -10 -11 -10 -5 0 -7 5 -4 10 3 6 8 10 11 10
2 0 4 -4 4 -10z m53 -25 c-3 -9 -8 -14 -10 -11 -3 3 -2 9 2 15 9 16 15 13 8
-4z m192 5 c3 -5 1 -10 -4 -10 -6 0 -11 5 -11 10 0 6 2 10 4 10 3 0 8 -4 11
-10z m-324 -27 c-8 -15 -10 -15 -11 -2 0 17 10 32 18 25 2 -3 -1 -13 -7 -23z
m1819 17 c0 -5 -4 -10 -9 -10 -6 0 -13 5 -16 10 -3 6 1 10 9 10 9 0 16 -4 16
-10z"/>
<path d="M6480 6486 c0 -2 7 -7 16 -10 8 -3 12 -2 9 4 -6 10 -25 14 -25 6z"/>
<path d="M6775 6480 c3 -5 14 -10 23 -10 15 0 15 2 2 10 -20 13 -33 13 -25 0z"/>
<path d="M6862 6468 c4 -11 98 -42 98 -32 0 6 -78 44 -90 44 -7 0 -10 -5 -8
-12z"/>
<path d="M7870 6416 c0 -9 5 -16 10 -16 6 0 10 4 10 9 0 6 -4 13 -10 16 -5 3
-10 -1 -10 -9z"/>
<path d="M5680 6399 c0 -5 5 -7 10 -4 6 3 10 8 10 11 0 2 -4 4 -10 4 -5 0 -10
-5 -10 -11z"/>
<path d="M7870 6350 c0 -5 12 -10 26 -10 14 0 23 4 19 10 -3 6 -15 10 -26 10
-10 0 -19 -4 -19 -10z"/>
<path d="M7750 6251 c0 -6 4 -13 10 -16 6 -3 7 1 4 9 -7 18 -14 21 -14 7z"/>
<path d="M7504 6211 c21 -23 26 -26 26 -11 0 5 -10 15 -22 21 -23 12 -23 12
-4 -10z"/>
<path d="M4210 6202 c0 -5 7 -15 15 -22 8 -7 15 -8 15 -2 0 5 -7 15 -15 22 -8
7 -15 8 -15 2z"/>
<path d="M7779 6127 c-11 -93 -13 -89 57 -111 25 -8 42 21 23 38 -9 8 -10 7
-6 -6 5 -13 1 -18 -11 -18 -26 0 -56 25 -48 39 6 9 11 9 22 0 8 -6 17 -9 21
-5 3 3 0 6 -8 6 -10 1 -8 6 7 18 21 18 21 18 -18 34 -27 12 -38 13 -39 5z"/>
<path d="M5642 6100 c0 -14 2 -19 5 -12 2 6 2 18 0 25 -3 6 -5 1 -5 -13z"/>
<path d="M7890 6104 c0 -11 11 -24 27 -31 37 -18 38 -11 3 22 -26 25 -30 26
-30 9z"/>
<path d="M5987 6026 c16 -21 19 -22 30 -7 9 13 8 17 -5 23 -35 14 -44 9 -25
-16z"/>
<path d="M4026 5995 c24 -18 31 -18 38 0 4 11 -2 15 -26 15 -30 0 -31 -1 -12
-15z"/>
<path d="M5953 5999 c14 -8 22 -8 30 0 8 8 3 11 -18 11 -26 -1 -28 -2 -12 -11z"/>
<path d="M7948 6003 c7 -3 16 -2 19 1 4 3 -2 6 -13 5 -11 0 -14 -3 -6 -6z"/>
<path d="M4100 5963 c0 -13 5 -23 10 -23 13 0 13 11 0 30 -8 12 -10 11 -10 -7z"/>
<path d="M4155 5920 c-3 -5 1 -10 9 -10 9 0 16 5 16 10 0 6 -4 10 -9 10 -6 0
-13 -4 -16 -10z"/>
<path d="M5990 5880 c-9 -6 -10 -10 -3 -10 6 0 15 5 18 10 8 12 4 12 -15 0z"/>
<path d="M6222 5872 c-14 -9 -49 -17 -80 -18 -126 -5 -206 -24 -216 -51 -5
-13 -1 -15 26 -9 24 4 29 3 18 -4 -8 -5 -25 -10 -37 -10 -28 0 -73 -20 -73
-33 0 -5 -8 -16 -17 -23 -13 -10 -14 -13 -4 -14 23 0 -7 -28 -45 -40 -19 -6
-34 -16 -34 -20 0 -5 6 -7 14 -4 8 3 17 1 20 -4 7 -11 -21 -25 -34 -17 -4 3
-10 -5 -13 -16 -4 -13 -10 -18 -18 -13 -9 5 -11 -2 -6 -29 3 -20 3 -36 -1 -34
-7 2 -12 -7 -12 -23 0 -18 20 -11 47 16 l26 27 20 -27 c10 -14 23 -24 28 -20
13 8 11 -23 -3 -49 -17 -30 -31 -38 -40 -24 -5 8 -8 6 -8 -6 0 -10 -16 -35
-36 -55 -36 -37 -69 -100 -58 -111 3 -3 72 -6 152 -7 117 0 154 -4 181 -17 38
-19 61 -22 61 -7 0 5 -18 15 -41 21 -46 14 -69 41 -69 82 0 35 13 61 57 108
34 36 108 79 137 79 16 0 26 -42 15 -62 -18 -33 45 -197 86 -223 11 -8 37 -17
58 -21 25 -4 34 -9 26 -14 -7 -5 -18 -6 -24 -4 -7 3 -22 -11 -33 -30 -12 -20
-26 -36 -32 -36 -5 0 -10 -6 -10 -14 0 -10 10 -13 33 -12 42 4 57 -2 58 -23 0
-10 4 -7 11 9 5 14 16 37 24 51 7 14 11 34 8 45 -5 18 0 20 38 19 68 -3 66 -1
55 -39 -8 -22 -21 -37 -41 -46 l-31 -13 35 -5 c19 -2 38 -9 42 -15 5 -7 8 1 9
18 0 17 5 39 10 50 7 16 9 14 6 -13 -2 -18 0 -35 5 -38 4 -3 8 -4 8 -2 1 2 3
20 6 41 5 29 2 37 -10 37 -9 0 -16 7 -16 15 0 9 6 15 13 13 19 -3 70 12 87 27
66 58 90 86 90 105 0 16 4 20 16 16 8 -3 12 -2 9 4 -3 6 -2 10 3 10 5 0 12
-13 16 -30 6 -31 26 -42 26 -15 0 8 5 15 11 15 6 0 8 -9 4 -20 -5 -14 -2 -20
9 -20 30 0 17 -26 -26 -53 -15 -9 -31 -17 -34 -16 -4 0 -10 -4 -13 -10 -4 -5
-23 -11 -44 -13 -20 -1 -37 -6 -37 -11 0 -4 -4 -6 -8 -3 -5 3 -26 -1 -47 -8
-37 -13 -38 -14 -16 -26 13 -6 34 -9 48 -5 24 6 24 5 6 -13 -10 -11 -25 -22
-33 -26 -8 -3 -4 -4 10 0 14 3 33 6 43 5 11 0 17 8 17 22 0 16 3 18 12 9 16
-16 28 -15 28 3 0 17 26 21 32 5 2 -6 13 -4 29 4 16 8 32 10 42 5 10 -6 17 -4
21 7 5 13 9 14 20 4 20 -16 111 -3 97 14 -6 6 -7 17 -3 23 5 8 15 2 30 -17 13
-16 29 -27 37 -24 7 3 16 1 20 -5 3 -6 11 -11 16 -11 11 0 8 38 -4 58 -5 7 -4
12 2 12 10 0 15 -14 12 -32 0 -5 4 -8 9 -8 6 0 10 -7 10 -15 0 -20 39 -20 46
0 4 8 1 22 -5 29 -7 9 -8 17 -3 20 6 3 12 0 15 -8 6 -16 54 -18 64 -3 3 5 -2
16 -12 23 -16 12 -17 14 -2 20 22 8 43 8 172 1 77 -5 104 -4 90 3 -15 8 -1 9
50 5 39 -2 77 0 85 5 11 7 7 10 -18 10 -20 0 -31 4 -27 10 8 13 -38 13 -51 0
-7 -7 -33 -8 -68 -4 -65 8 -68 17 -4 15 49 -1 138 19 138 31 0 4 -13 8 -29 8
-17 0 -33 4 -36 10 -3 5 -28 8 -55 7 -28 -2 -50 0 -50 5 0 4 5 8 11 8 5 0 7 5
4 10 -8 13 -42 13 -47 0 -4 -12 -59 12 -77 34 -7 8 -20 12 -30 9 -10 -3 -22 0
-25 6 -4 6 0 11 11 11 14 1 13 4 -7 15 -14 8 -33 12 -42 9 -10 -3 -18 -1 -18
5 0 6 12 11 26 11 22 0 25 2 14 15 -7 8 -19 15 -27 15 -7 0 -23 9 -35 20 -12
11 -16 20 -10 20 16 0 88 -46 99 -62 4 -7 19 -22 32 -33 l24 -20 -7 25 -7 25
19 -24 c14 -17 21 -20 24 -11 3 11 9 9 25 -6 43 -39 54 -45 80 -47 14 -1 28 4
30 11 3 7 -4 12 -19 12 -28 0 -66 25 -55 36 4 4 7 2 7 -4 0 -7 5 -12 10 -12 6
0 10 7 10 15 0 8 5 15 11 15 6 0 9 -9 6 -20 -3 -13 0 -20 9 -20 18 0 17 20 -1
44 -8 11 -20 16 -30 12 -9 -3 -26 0 -37 8 -11 8 -28 12 -37 9 -13 -4 -13 -3
-2 5 7 5 38 8 67 5 49 -4 54 -3 54 15 0 14 -9 21 -30 26 -37 7 -44 46 -7 47
21 0 21 1 2 8 -11 5 -30 4 -43 0 -34 -13 -45 -11 -38 6 3 9 0 15 -8 15 -8 0
-16 -6 -18 -12 -3 -8 -14 -2 -31 16 -15 16 -30 26 -34 23 -3 -4 -12 -2 -19 4
-8 6 -21 9 -29 5 -9 -3 -13 -2 -10 4 6 9 -16 15 -39 11 -5 -1 -16 1 -24 4 -11
4 -12 8 -2 20 10 12 3 15 -41 21 -48 6 -51 8 -33 22 18 14 18 14 -5 9 -13 -3
-34 -1 -48 4 -15 5 -31 5 -41 0 -23 -12 -53 5 -45 25 5 13 1 15 -14 10 -48
-15 -140 -9 -184 12 -25 12 -59 22 -75 22 -17 0 -53 6 -80 14 -27 7 -69 14
-94 14 -25 1 -66 4 -92 6 -26 3 -61 1 -78 -4 -28 -8 -44 3 -17 13 6 2 10 7 7
10 -3 2 -16 -2 -28 -11z m299 -53 c19 -5 52 -14 74 -18 49 -11 136 -43 207
-75 40 -19 49 -26 36 -31 -10 -4 -24 -21 -33 -38 -18 -36 -18 -37 -5 -37 5 0
17 15 26 33 9 17 22 35 28 39 16 11 38 10 31 -2 -3 -5 0 -8 7 -5 7 3 24 -4 38
-15 24 -19 25 -19 5 -33 -10 -8 -26 -13 -35 -10 -8 2 -3 -6 13 -19 32 -28 32
-29 8 -57 l-20 -23 -48 23 c-26 12 -50 23 -53 23 -3 1 -14 6 -24 12 -18 11
-18 13 -2 35 27 39 18 46 -14 11 -25 -29 -32 -32 -49 -22 -12 6 -21 18 -21 28
-1 16 -1 16 -11 0 -7 -13 -15 -15 -33 -8 -13 5 -26 6 -29 4 -3 -3 -15 -1 -26
5 -13 8 -18 17 -14 29 5 14 3 15 -8 5 -14 -14 -89 -18 -89 -5 0 5 -18 9 -41
10 -33 2 -40 -1 -35 -13 3 -8 1 -15 -3 -15 -5 0 -11 5 -13 12 -3 7 -22 12 -44
13 -21 0 -45 4 -52 9 -7 4 -19 3 -26 -3 -10 -9 -17 -6 -29 12 -8 13 -17 34
-20 48 -3 16 -5 11 -6 -16 -2 -60 -14 -72 -39 -41 -26 34 -33 33 -26 -4 l6
-30 -52 4 c-31 3 -60 12 -72 23 -20 17 -20 17 -15 -2 20 -68 20 -75 -3 -75
-24 0 -61 17 -72 34 -5 7 -8 6 -8 -3 0 -10 -5 -10 -25 3 -25 17 -25 16 -13 -4
7 -11 16 -20 19 -20 16 0 18 -33 3 -48 -19 -18 -100 -20 -118 -2 -7 7 -4 10 8
10 9 0 14 4 11 10 -7 11 25 70 37 70 4 0 8 6 8 14 0 19 44 50 139 96 92 45
141 60 231 71 77 9 244 2 291 -12z m516 -125 c-3 -3 -12 -4 -19 -1 -8 3 -5 6
6 6 11 1 17 -2 13 -5z m-53 -53 c4 -5 0 -12 -6 -14 -8 -4 -4 -8 10 -12 12 -4
22 -12 22 -17 0 -6 6 -8 13 -5 7 2 26 -6 42 -20 29 -24 29 -24 5 -17 -48 13
-66 22 -79 38 -7 9 -20 16 -27 16 -16 0 -16 2 -8 24 7 18 20 21 28 7z m-474
-21 c0 -5 -4 -10 -10 -10 -5 0 -10 5 -10 10 0 6 5 10 10 10 6 0 10 -4 10 -10z
m765 -30 c-3 -5 -11 -10 -16 -10 -6 0 -7 5 -4 10 3 6 11 10 16 10 6 0 7 -4 4
-10z m-310 -40 c3 -5 1 -10 -4 -10 -6 0 -11 5 -11 10 0 6 2 10 4 10 3 0 8 -4
11 -10z m323 3 c-10 -2 -26 -2 -35 0 -10 3 -2 5 17 5 19 0 27 -2 18 -5z m-265
-42 c24 3 37 -1 37 -11 0 -14 -34 -12 -48 2 -10 10 -15 10 -21 -1 -7 -11 -14
-10 -37 4 l-29 16 34 -5 c26 -5 32 -3 28 8 -3 8 -1 17 6 19 7 2 13 -5 15 -15
2 -10 9 -18 15 -17z m79 -4 c32 -24 38 -44 8 -25 -11 7 -20 16 -20 20 0 5 -6
8 -12 8 -7 0 -22 8 -33 16 -19 16 -19 16 5 9 13 -4 37 -17 52 -28z m-763 -33
c3 -15 1 -16 -12 -6 -8 7 -22 10 -31 6 -9 -3 -16 -1 -16 4 0 11 27 21 45 17 6
-1 12 -10 14 -21z m-454 -184 c3 -5 -1 -10 -9 -10 -9 0 -16 5 -16 10 0 6 4 10
9 10 6 0 13 -4 16 -10z m445 -149 c0 -12 -20 -25 -27 -18 -7 7 6 27 18 27 5 0
9 -4 9 -9z"/>
<path d="M6850 5646 c0 -2 7 -9 15 -16 9 -7 15 -8 15 -2 0 5 -7 12 -15 16 -8
3 -15 4 -15 2z"/>
<path d="M5926 5851 c-4 -5 3 -7 14 -4 23 6 26 13 6 13 -8 0 -17 -4 -20 -9z"/>
<path d="M6664 5833 c10 -11 79 -33 103 -33 12 0 25 5 28 10 4 6 -7 10 -24 10
-17 0 -31 4 -31 8 0 5 -19 9 -42 10 -23 1 -38 -1 -34 -5z"/>
<path d="M4315 5800 c3 -5 13 -10 21 -10 8 0 12 5 9 10 -3 6 -13 10 -21 10 -8
0 -12 -4 -9 -10z"/>
<path d="M6890 5791 c0 -5 11 -8 25 -8 14 0 25 3 25 8 0 5 -11 9 -25 9 -14 0
-25 -4 -25 -9z"/>
<path d="M5825 5760 c-3 -5 -1 -10 4 -10 6 0 11 5 11 10 0 6 -2 10 -4 10 -3 0
-8 -4 -11 -10z"/>
<path d="M4373 5753 c9 -2 23 -2 30 0 6 3 -1 5 -18 5 -16 0 -22 -2 -12 -5z"/>
<path d="M7040 5749 c0 -5 5 -7 10 -4 6 3 10 8 10 11 0 2 -4 4 -10 4 -5 0 -10
-5 -10 -11z"/>
<path d="M4215 5740 c-3 -5 -1 -10 4 -10 6 0 11 5 11 10 0 6 -2 10 -4 10 -3 0
-8 -4 -11 -10z"/>
<path d="M4330 5521 c0 -5 5 -13 10 -16 6 -3 10 -2 10 4 0 5 -4 13 -10 16 -5
3 -10 2 -10 -4z"/>
<path d="M7300 5400 c0 -5 5 -10 10 -10 6 0 10 5 10 10 0 6 -4 10 -10 10 -5 0
-10 -4 -10 -10z"/>
<path d="M7920 5248 c0 -16 5 -28 10 -28 13 0 13 20 0 40 -8 12 -10 9 -10 -12z"/>
<path d="M6090 5213 c0 -6 -11 -22 -26 -38 -29 -31 -24 -49 6 -19 40 40 50 46
50 30 0 -8 6 -16 13 -19 9 -3 8 -13 -5 -41 -23 -47 -22 -57 2 -28 11 14 24 20
31 16 7 -4 9 -3 6 3 -6 9 33 31 63 37 3 1 18 11 33 22 l27 22 -31 11 c-41 14
-52 14 -43 0 5 -8 0 -10 -17 -6 -58 15 -109 19 -109 10z"/>
<path d="M3955 5200 c-8 -13 4 -32 16 -25 12 8 12 35 0 35 -6 0 -13 -4 -16
-10z"/>
<path d="M6423 5178 c2 -7 10 -13 17 -13 7 0 15 6 18 13 2 7 -5 12 -18 12 -13
0 -20 -5 -17 -12z"/>
<path d="M6387 5136 c-4 -10 -5 -21 -2 -24 9 -9 17 6 13 25 -3 17 -4 17 -11
-1z"/>
<path d="M7931 5134 c0 -11 3 -14 6 -6 3 7 2 16 -1 19 -3 4 -6 -2 -5 -13z"/>
<path d="M3888 5093 c7 -3 16 -2 19 1 4 3 -2 6 -13 5 -11 0 -14 -3 -6 -6z"/>
<path d="M3568 5053 c7 -3 16 -2 19 1 4 3 -2 6 -13 5 -11 0 -14 -3 -6 -6z"/>
<path d="M6600 4992 c0 -4 16 -6 35 -4 19 2 35 6 35 8 0 2 -16 4 -35 4 -19 0
-35 -4 -35 -8z"/>
<path d="M6525 4970 c28 -4 54 -3 60 1 5 5 -16 8 -50 8 l-60 -2 50 -7z"/>
<path d="M6149 4940 c25 -21 41 -26 41 -12 0 9 -44 32 -58 32 -4 -1 4 -10 17
-20z"/>
<path d="M8271 4944 c0 -11 3 -14 6 -6 3 7 2 16 -1 19 -3 4 -6 -2 -5 -13z"/>
<path d="M6210 4925 c0 -9 14 -16 38 -20 20 -4 47 -10 60 -15 14 -6 22 -6 22
0 0 6 1 13 3 16 2 5 -37 12 -90 16 -7 1 -13 5 -13 10 0 4 -4 8 -10 8 -5 0 -10
-7 -10 -15z"/>
<path d="M6379 4879 c16 -6 28 -6 35 1 7 7 -1 10 -24 9 -33 0 -34 -1 -11 -10z"/>
<path d="M6434 4878 c-9 -14 17 -29 41 -23 11 2 26 5 33 5 6 0 12 6 12 13 0
15 -77 19 -86 5z"/>
<path d="M6581 4866 c9 -9 118 -13 155 -6 29 6 15 8 -60 9 -55 0 -97 -1 -95
-3z"/>
<path d="M5750 3866 c0 -8 -8 -17 -17 -19 -14 -4 -12 -5 5 -6 16 -1 22 5 22
19 0 11 -2 20 -5 20 -3 0 -5 -6 -5 -14z"/>
<path d="M5704 3815 c3 -8 -9 -30 -29 -51 -19 -20 -35 -42 -35 -49 0 -21 -46
-56 -66 -49 -15 5 -16 4 -4 -5 21 -15 7 -23 -22 -12 -17 6 -39 6 -64 -1 -22
-6 -64 -9 -94 -7 -139 9 -376 4 -410 -10 -64 -24 -74 -29 -167 -72 -51 -23
-93 -45 -93 -48 0 -4 12 -8 27 -9 15 -1 36 -11 47 -22 16 -16 17 -21 6 -35
-25 -30 -69 -45 -130 -45 -75 0 -76 -15 -4 -44 27 -11 51 -24 52 -28 5 -12
130 -10 137 2 3 6 18 10 32 10 15 0 68 20 118 45 50 25 105 48 121 51 16 3 49
12 74 20 25 9 60 17 78 20 18 2 42 8 51 14 10 5 21 7 24 4 3 -3 33 0 67 7 43
8 57 15 48 21 -9 7 -7 8 7 4 33 -9 127 27 168 64 20 18 37 38 37 43 0 5 16 28
35 51 19 24 35 51 35 60 0 10 3 15 8 13 4 -3 7 10 7 28 0 18 -3 37 -7 41 -5 4
-8 2 -8 -4 0 -7 -7 -12 -15 -12 -8 0 -15 5 -15 10 0 6 -5 10 -11 10 -6 0 -9
-7 -5 -15z m50 -30 c-4 -8 -11 -15 -16 -15 -6 0 -5 6 2 15 7 8 14 15 16 15 2
0 1 -7 -2 -15z"/>
<path d="M7756 3435 c4 -8 10 -12 15 -9 14 8 10 24 -6 24 -9 0 -12 -6 -9 -15z"/>
<path d="M7730 3419 c0 -11 4 -18 10 -14 5 3 7 12 3 20 -7 21 -13 19 -13 -6z"/>
<path d="M7820 3400 c0 -5 5 -10 10 -10 6 0 10 5 10 10 0 6 -4 10 -10 10 -5 0
-10 -4 -10 -10z"/>
<path d="M3803 3346 c-16 -19 -4 -29 13 -11 8 7 14 16 14 19 0 10 -15 6 -27
-8z"/>
<path d="M7818 3273 c7 -3 16 -2 19 1 4 3 -2 6 -13 5 -11 0 -14 -3 -6 -6z"/>
<path d="M3712 3087 c-15 -41 -15 -57 -2 -57 6 0 10 9 10 19 0 11 5 23 10 26
12 7 14 45 2 45 -4 0 -13 -15 -20 -33z"/>
<path d="M8048 2963 c7 -3 16 -2 19 1 4 3 -2 6 -13 5 -11 0 -14 -3 -6 -6z"/>
<path d="M8168 2953 c6 -2 18 -2 25 0 6 3 1 5 -13 5 -14 0 -19 -2 -12 -5z"/>
<path d="M4047 2859 c-21 -24 -32 -30 -51 -25 -14 3 -28 2 -31 -4 -3 -5 -2
-10 3 -10 5 0 12 -8 15 -17 14 -45 48 -89 92 -120 28 -20 60 -74 99 -168 9
-22 28 -49 43 -60 14 -11 37 -33 52 -48 71 -77 103 -105 162 -142 86 -54 163
-65 131 -19 -4 6 -15 13 -24 17 -10 3 -18 15 -18 25 0 10 -6 26 -13 36 -18 24
-10 76 11 76 11 0 4 10 -18 30 -29 25 -41 30 -74 26 -72 -8 -95 18 -127 146
-11 48 -9 171 4 184 4 4 17 2 30 -3 57 -28 90 -34 106 -18 13 13 13 19 3 35
-7 11 -9 20 -5 19 19 -3 33 2 33 11 0 6 -24 10 -53 10 -31 0 -61 6 -75 16 -12
8 -22 10 -22 5 0 -6 -7 -11 -15 -11 -8 0 -20 -9 -27 -20 -7 -11 -16 -20 -21
-20 -4 0 -6 4 -2 9 6 11 -11 17 -77 26 -27 3 -48 10 -48 16 0 5 -8 9 -18 9
-10 0 -22 4 -28 10 -6 6 -19 -1 -37 -21z"/>
<path d="M4443 2867 c5 -15 37 -22 37 -9 0 5 -9 12 -21 15 -13 3 -19 1 -16 -6z"/>
<path d="M4734 2857 c5 -23 4 -23 -49 -19 -36 3 -60 0 -70 -8 -12 -10 -19 -10
-27 -2 -7 7 -21 12 -33 12 -12 0 -27 6 -33 12 -10 10 -15 10 -22 -2 -6 -9 -3
-18 8 -28 14 -10 14 -14 3 -19 -8 -3 7 -16 40 -34 50 -28 53 -28 71 -12 28 25
111 19 176 -12 29 -14 58 -25 65 -25 7 0 17 -4 23 -10 9 -9 68 6 143 37 88 36
179 25 238 -30 25 -24 35 -28 46 -19 8 7 16 9 19 6 4 -3 28 6 54 20 38 20 56
24 89 19 55 -9 95 -26 128 -57 15 -14 33 -26 40 -26 21 1 89 58 75 63 -7 3 21
5 63 4 90 -2 114 -17 124 -78 7 -39 18 -49 30 -28 7 10 110 59 126 59 4 0 10
-9 14 -19 3 -10 17 -22 31 -25 31 -8 47 -46 45 -105 -2 -46 -25 -75 -69 -87
-27 -8 -95 19 -135 52 -33 28 -42 25 -61 -20 -19 -45 -71 -86 -108 -86 -24 0
-43 12 -86 55 -30 30 -56 55 -57 55 -1 0 -10 -20 -19 -44 -21 -54 -47 -67
-151 -73 -66 -4 -86 -1 -117 15 -33 17 -39 18 -50 5 -24 -30 -72 -45 -142 -46
-89 -2 -193 12 -228 29 -20 11 -33 11 -58 2 -21 -7 -70 -9 -136 -5 -83 5 -110
10 -133 26 -24 18 -30 19 -35 6 -3 -10 1 -15 11 -15 13 0 14 -3 6 -11 -9 -9
-6 -17 8 -32 13 -15 22 -18 30 -10 19 19 55 3 69 -33 8 -19 21 -34 30 -34 8 0
26 -7 38 -16 20 -14 22 -14 22 2 0 12 5 15 23 10 12 -4 48 -14 80 -22 32 -8
67 -18 76 -24 10 -5 31 -6 47 -1 16 4 41 4 57 0 49 -14 160 -11 220 6 52 15
63 15 110 2 81 -23 134 -30 142 -18 3 6 -2 11 -12 11 -40 0 23 27 75 32 44 4
52 3 47 -10 -4 -11 0 -13 22 -7 15 3 31 11 34 17 10 15 69 18 90 5 19 -12 98
10 146 39 12 8 27 14 34 14 15 0 81 32 97 46 6 7 21 16 32 19 11 3 20 10 20
15 0 4 12 11 28 15 56 13 260 123 272 146 13 26 19 89 8 89 -5 0 -8 7 -4 15 3
8 1 15 -4 15 -6 0 -10 5 -10 10 0 19 -52 60 -90 70 -49 13 -290 41 -301 35 -4
-3 -41 1 -81 9 -98 20 -184 35 -233 41 -22 2 -61 10 -87 16 -32 7 -57 8 -80 1
-18 -6 -40 -10 -48 -10 -8 0 -24 -3 -35 -5 -11 -3 -38 -10 -60 -15 -22 -5 -44
-11 -50 -12 -5 -2 -28 5 -50 15 -33 16 -58 18 -145 15 -207 -9 -326 -6 -343 8
-9 8 -21 11 -26 8 -5 -4 -12 -2 -16 4 -3 5 -13 10 -22 10 -11 0 -14 -6 -9 -23z
m859 -14 c-7 -2 -19 -2 -25 0 -7 3 -2 5 12 5 14 0 19 -2 13 -5z m-81 -18 c0
-5 -5 -11 -11 -13 -6 -2 -11 4 -11 13 0 9 5 15 11 13 6 -2 11 -8 11 -13z
m-624 -52 c-10 -2 -26 -2 -35 0 -10 3 -2 5 17 5 19 0 27 -2 18 -5z"/>
<path d="M8230 2851 c0 -6 4 -13 10 -16 6 -3 7 1 4 9 -7 18 -14 21 -14 7z"/>
<path d="M8150 2600 c0 -5 7 -10 16 -10 8 0 12 5 9 10 -3 6 -10 10 -16 10 -5
0 -9 -4 -9 -10z"/>
<path d="M8065 2550 c3 -5 8 -10 11 -10 2 0 4 5 4 10 0 6 -5 10 -11 10 -5 0
-7 -4 -4 -10z"/>
<path d="M5750 2240 c-18 -12 -2 -12 25 0 13 6 15 9 5 9 -8 0 -22 -4 -30 -9z"/>
<path d="M7790 2120 c0 -5 5 -10 10 -10 6 0 10 5 10 10 0 6 -4 10 -10 10 -5 0
-10 -4 -10 -10z"/>
<path d="M6460 1030 c-13 -8 -12 -10 3 -10 9 0 17 5 17 10 0 12 -1 12 -20 0z"/>
<path d="M5180 490 c0 -15 7 -20 25 -20 18 0 25 5 25 20 0 15 -7 20 -25 20
-18 0 -25 -5 -25 -20z"/>
<path d="M4176 5675 c4 -8 8 -15 10 -15 2 0 4 7 4 15 0 8 -4 15 -10 15 -5 0
-7 -7 -4 -15z"/>
<path d="M4136 5646 c10 -8 21 -12 24 -10 5 6 -21 24 -34 24 -6 0 -1 -6 10
-14z"/>
<path d="M3158 5443 c7 -3 16 -2 19 1 4 3 -2 6 -13 5 -11 0 -14 -3 -6 -6z"/>
<path d="M5463 342 c-8 -5 -9 -13 -3 -22 8 -13 10 -12 10 3 0 19 15 23 23 7 3
-6 4 -5 3 2 -3 15 -18 20 -33 10z"/>
<path d="M5511 314 c0 -11 3 -14 6 -6 3 7 2 16 -1 19 -3 4 -6 -2 -5 -13z"/>
<path d="M5490 305 c0 -5 5 -17 10 -25 5 -8 10 -10 10 -5 0 6 -5 17 -10 25 -5
8 -10 11 -10 5z"/>
</g>
</svg>
